<svg width="25" height="28" viewBox="0 0 25 28" fill="none" xmlns="http://www.w3.org/2000/svg">
<path d="M19.6418 4.44854C18.6164 3.25142 18.0513 1.71402 18.0517 0.122559H13.4163V19.1446C13.3806 20.174 12.9556 21.149 12.2309 21.8644C11.5062 22.5797 10.5383 22.9796 9.53103 22.9797C7.40086 22.9797 5.63072 21.2002 5.63072 18.9912C5.63072 16.3527 8.12092 14.3738 10.6861 15.1868V10.3392C5.51071 9.63359 0.980339 13.7448 0.980339 18.9912C0.980339 24.0996 5.12067 27.7352 9.51603 27.7352C14.2264 27.7352 18.0517 23.8234 18.0517 18.9912V9.34212C19.9314 10.7225 22.1881 11.4632 24.5022 11.4591V6.71892C24.5022 6.71892 21.682 6.85698 19.6418 4.44854Z" fill="#5272FF"/>
</svg>
