<svg width="31" height="32" viewBox="0 0 31 32" fill="none" xmlns="http://www.w3.org/2000/svg">
<path d="M9.05569 0.588379H21.9416C26.8505 0.588379 30.839 4.57688 30.839 9.4858V22.3717C30.839 24.7315 29.9016 26.9945 28.233 28.6631C26.5644 30.3317 24.3013 31.2691 21.9416 31.2691H9.05569C4.14677 31.2691 0.158272 27.2806 0.158272 22.3717V9.4858C0.158272 7.12605 1.09568 4.86296 2.76426 3.19437C4.43285 1.52578 6.69595 0.588379 9.05569 0.588379ZM8.74888 3.65645C7.28421 3.65645 5.87954 4.23829 4.84386 5.27397C3.80818 6.30964 3.22635 7.71432 3.22635 9.17899V22.6785C3.22635 25.7312 5.69615 28.201 8.74888 28.201H22.2484C23.7131 28.201 25.1178 27.6192 26.1534 26.5835C27.1891 25.5479 27.7709 24.1432 27.7709 22.6785V9.17899C27.7709 6.12625 25.3011 3.65645 22.2484 3.65645H8.74888ZM23.5523 5.95751C24.0609 5.95751 24.5486 6.15954 24.9083 6.51915C25.2679 6.87876 25.4699 7.36649 25.4699 7.87506C25.4699 8.38362 25.2679 8.87136 24.9083 9.23097C24.5486 9.59058 24.0609 9.7926 23.5523 9.7926C23.0438 9.7926 22.556 9.59058 22.1964 9.23097C21.8368 8.87136 21.6348 8.38362 21.6348 7.87506C21.6348 7.36649 21.8368 6.87876 22.1964 6.51915C22.556 6.15954 23.0438 5.95751 23.5523 5.95751ZM15.4986 8.25856C17.5329 8.25856 19.4838 9.06667 20.9223 10.5051C22.3607 11.9435 23.1688 13.8945 23.1688 15.9288C23.1688 17.963 22.3607 19.914 20.9223 21.3524C19.4838 22.7908 17.5329 23.5989 15.4986 23.5989C13.4644 23.5989 11.5134 22.7908 10.075 21.3524C8.63656 19.914 7.82846 17.963 7.82846 15.9288C7.82846 13.8945 8.63656 11.9435 10.075 10.5051C11.5134 9.06667 13.4644 8.25856 15.4986 8.25856ZM15.4986 11.3266C14.2781 11.3266 13.1075 11.8115 12.2445 12.6746C11.3814 13.5376 10.8965 14.7082 10.8965 15.9288C10.8965 17.1493 11.3814 18.3199 12.2445 19.1829C13.1075 20.046 14.2781 20.5309 15.4986 20.5309C16.7192 20.5309 17.8898 20.046 18.7528 19.1829C19.6159 18.3199 20.1008 17.1493 20.1008 15.9288C20.1008 14.7082 19.6159 13.5376 18.7528 12.6746C17.8898 11.8115 16.7192 11.3266 15.4986 11.3266Z" fill="#5272FF"/>
</svg>
